# xmcd
#
# Track frame offsets:
#  150
#  11775
#  28867
#  45675
#  58022
#  69207
#  80877
#  92082
#  103580
#  114750
#  130475
#  142920
#  158612
#  173267
#  186150
#  200875
#  210150
#  222092
#
# Disc length: 3077 seconds
#
# Revision: 0
# Processed by: cddbd v1.5.1PL2 Copyright (c) Steve Scherf et al.
# Submitted via: Collectorz.com_Music_Collector 6.9
#
DISCID=f30c0312
DTITLE=Pat Boone - Inspirations
DYEAR=1900
DGENRE=country
TTITLE0=Amazing Grace
TTITLE1=How Great Thou Art
TTITLE2=Battle Hymn Of The Republic
TTITLE3=Old Rugged Cross
TTITLE4=Sweet Hour Of Prayer
TTITLE5=Precious Lord Take My Hand
TTITLE6=In The Garden
TTITLE7=My God Is Real
TTITLE8=What A Friend We Have In Jesus
TTITLE9=Nearer My God To Thee
TTITLE10=Will The Circle Be Unbroken
TTITLE11=Family Bible
TTITLE12=Supper Time
TTITLE13=The Family Who Prays
TTITLE14=These hands
TTITLE15=Wonderful Time Up There
TTITLE16=Turn Your Radio On
TTITLE17=Wait For The Light To Shine
EXTD=
EXTT0=
EXTT1=
EXTT2=
EXTT3=
EXTT4=
EXTT5=
EXTT6=
EXTT7=
EXTT8=
EXTT9=
EXTT10=
EXTT11=
EXTT12=
EXTT13=
EXTT14=
EXTT15=
EXTT16=
EXTT17=
PLAYORDER=
